# xmcd
#
# Track frame offsets:
#	150
#	20205
#	36777
#	56925
#	73304
#	91026
#	109230
#	133657
#	153993
#	172778
#
# Disc length: 2558 seconds
# Revision: 0
# Processed by: cddbd v1.5.2PL0 Copyright (c) Steve Scherf et al.
# Submitted via: dBpowerAMP V12.0
#
DISCID=8709fc0a
DTITLE=Rebecca Downes - Back to the Start
DYEAR=2014
DGENRE=Blues
TTITLE0=Messed Up
TTITLE1=When I'm Bad
TTITLE2=Fever in the Night
TTITLE3=Round and Round
TTITLE4=Laughter from Her Room
TTITLE5=Basement of My Heart
TTITLE6=Walking with Shadows
TTITLE7=Back to the Start
TTITLE8=Better for Knowing You
TTITLE9=Little Girl
EXTD=
EXTT0=
EXTT1=
EXTT2=
EXTT3=
EXTT4=
EXTT5=
EXTT6=
EXTT7=
EXTT8=
EXTT9=
PLAYORDER=
